<?xml version="1.0" encoding="UTF-8" standalone="no"?>
<!DOCTYPE svg PUBLIC "-//W3C//DTD SVG 1.1//EN"
 "http://www.w3.org/Graphics/SVG/1.1/DTD/svg11.dtd">
<!-- Generated by graphviz version 2.38.0 (20140413.2041)
 -->
<!-- Title: g Pages: 1 -->
<svg width="491pt" height="221pt"
 viewBox="0.00 0.00 490.77 221.00" xmlns="http://www.w3.org/2000/svg" xmlns:xlink="http://www.w3.org/1999/xlink">
<g id="graph0" class="graph" transform="scale(1 1) rotate(0) translate(4 217)">
<title>g</title>
<polygon fill="white" stroke="none" points="-4,4 -4,-217 486.768,-217 486.768,4 -4,4"/>
<g id="clust1" class="cluster"><title>cluster_1150508209</title>
<polygon fill="#ececec" stroke="black" points="8,-8 8,-122 169.988,-122 169.988,-8 8,-8"/>
<text text-anchor="middle" x="37" y="-106.8" font-family="Times New Roman,serif" font-size="14.00">adapter</text>
</g>
<g id="clust2" class="cluster"><title>cluster_1708413794</title>
<polygon fill="white" stroke="black" points="16,-16 16,-91 161.988,-91 161.988,-16 16,-16"/>
<text text-anchor="middle" x="57" y="-75.8" font-family="Times New Roman,serif" font-size="14.00">GuiAdapter</text>
</g>
<g id="clust3" class="cluster"><title>cluster_1326197564</title>
<polygon fill="#ececec" stroke="black" points="177.988,-8 177.988,-205 474.768,-205 474.768,-8 177.988,-8"/>
<text text-anchor="middle" x="206.988" y="-189.8" font-family="Times New Roman,serif" font-size="14.00">domain</text>
</g>
<g id="clust4" class="cluster"><title>cluster_510937130</title>
<polygon fill="white" stroke="black" points="185.988,-16 185.988,-91 466.768,-91 466.768,-16 185.988,-16"/>
<text text-anchor="middle" x="214.988" y="-75.8" font-family="Times New Roman,serif" font-size="14.00">Service</text>
</g>
<g id="clust5" class="cluster"><title>cluster_583251319</title>
<polygon fill="white" stroke="black" points="336.378,-99 336.378,-174 432.971,-174 432.971,-99 336.378,-99"/>
<text text-anchor="middle" x="375.878" y="-158.8" font-family="Times New Roman,serif" font-size="14.00">Repository</text>
</g>
<!-- GuiAdapter879624892XXXsaveButton0 -->
<g id="node1" class="node"><title>GuiAdapter879624892XXXsaveButton0</title>
<g id="a_node1"><a xlink:title="GuiAdapter

null">
<ellipse fill="white" stroke="black" stroke-width="4" cx="88.9942" cy="-42" rx="64.9885" ry="18"/>
<text text-anchor="middle" x="88.9942" y="-38.3" font-family="Times New Roman,serif" font-size="14.00" fill="darkgreen">+ saveButton()</text>
</a>
</g>
</g>
<!-- Service1871648721XXXsave0 -->
<g id="node3" class="node"><title>Service1871648721XXXsave0</title>
<g id="a_node3"><a xlink:title="Service

null">
<ellipse fill="white" stroke="black" cx="234.285" cy="-42" rx="40.0939" ry="18"/>
<text text-anchor="middle" x="234.285" y="-38.3" font-family="Times New Roman,serif" font-size="14.00" fill="darkgreen">+ save()</text>
</a>
</g>
</g>
<!-- GuiAdapter879624892XXXsaveButton0&#45;&gt;Service1871648721XXXsave0 -->
<g id="edge1" class="edge"><title>GuiAdapter879624892XXXsaveButton0&#45;&gt;Service1871648721XXXsave0</title>
<path fill="none" stroke="black" d="M154.096,-42C164.055,-42 174.211,-42 183.783,-42"/>
<polygon fill="black" stroke="black" points="183.902,-45.5001 193.902,-42 183.902,-38.5001 183.902,-45.5001"/>
</g>
<!-- Service1871648721XXXnotifyChanges0 -->
<g id="node2" class="node"><title>Service1871648721XXXnotifyChanges0</title>
<g id="a_node2"><a xlink:title="Service

null">
<ellipse fill="white" stroke="black" cx="384.675" cy="-42" rx="74.187" ry="18"/>
<text text-anchor="middle" x="384.675" y="-38.3" font-family="Times New Roman,serif" font-size="14.00" fill="red">&#45; notifyChanges()</text>
</a>
</g>
</g>
<!-- Service1871648721XXXsave0&#45;&gt;Service1871648721XXXnotifyChanges0 -->
<g id="edge3" class="edge"><title>Service1871648721XXXsave0&#45;&gt;Service1871648721XXXnotifyChanges0</title>
<path fill="none" stroke="black" d="M274.661,-42C282.709,-42 291.463,-42 300.396,-42"/>
<polygon fill="black" stroke="black" points="300.528,-45.5001 310.528,-42 300.528,-38.5001 300.528,-45.5001"/>
</g>
<!-- Repository1871648721XXXsave0 -->
<g id="node4" class="node"><title>Repository1871648721XXXsave0</title>
<g id="a_node4"><a xlink:title="Repository

null">
<ellipse fill="white" stroke="black" cx="384.675" cy="-125" rx="40.0939" ry="18"/>
<text text-anchor="middle" x="384.675" y="-121.3" font-family="Times New Roman,serif" font-size="14.00" fill="darkgreen">+ save()</text>
</a>
</g>
</g>
<!-- Service1871648721XXXsave0&#45;&gt;Repository1871648721XXXsave0 -->
<g id="edge2" class="edge"><title>Service1871648721XXXsave0&#45;&gt;Repository1871648721XXXsave0</title>
<path fill="none" stroke="black" d="M256.66,-57.0459C278.921,-72.715 310.581,-95 310.581,-95 310.581,-95 327.275,-101.852 344.707,-109.006"/>
<polygon fill="black" stroke="black" points="343.786,-112.412 354.366,-112.971 346.444,-105.936 343.786,-112.412"/>
</g>
</g>
</svg>
