<?xml version="1.0" encoding="UTF-8" standalone="no"?>
<!DOCTYPE svg PUBLIC "-//W3C//DTD SVG 1.1//EN"
 "http://www.w3.org/Graphics/SVG/1.1/DTD/svg11.dtd">
<!-- Generated by graphviz version 2.38.0 (20140413.2041)
 -->
<!-- Title: g Pages: 1 -->
<svg width="423pt" height="291pt"
 viewBox="0.00 0.00 422.89 291.00" xmlns="http://www.w3.org/2000/svg" xmlns:xlink="http://www.w3.org/1999/xlink">
<g id="graph0" class="graph" transform="scale(1 1) rotate(0) translate(4 287)">
<title>g</title>
<polygon fill="white" stroke="none" points="-4,4 -4,-287 418.887,-287 418.887,4 -4,4"/>
<!-- createentity -->
<g id="node1" class="node"><title>createentity</title>
<ellipse fill="none" stroke="black" cx="228.692" cy="-18" rx="53.8905" ry="18"/>
<text text-anchor="middle" x="228.692" y="-14.3" font-family="Times New Roman,serif" font-size="14.00">create entity</text>
</g>
<!-- displayerrormessage -->
<g id="node2" class="node"><title>displayerrormessage</title>
<ellipse fill="none" stroke="black" cx="89.692" cy="-105" rx="89.8845" ry="18"/>
<text text-anchor="middle" x="89.692" y="-101.3" font-family="Times New Roman,serif" font-size="14.00">display error message</text>
</g>
<!-- isalreadysaved -->
<g id="node3" class="node"><title>isalreadysaved</title>
<polygon fill="none" stroke="black" points="293.692,-123 197.169,-105 293.692,-87 390.215,-105 293.692,-123"/>
<text text-anchor="middle" x="293.692" y="-101.3" font-family="Times New Roman,serif" font-size="14.00">is already saved</text>
</g>
<!-- isalreadysaved&#45;&gt;createentity -->
<g id="edge1" class="edge"><title>isalreadysaved&#45;&gt;createentity</title>
<path fill="none" stroke="black" d="M282.071,-88.8037C272.486,-76.2696 258.7,-58.2409 247.539,-43.6456"/>
<polygon fill="black" stroke="black" points="250.177,-41.334 241.322,-35.5164 244.617,-45.5861 250.177,-41.334"/>
<text text-anchor="middle" x="276.692" y="-57.8" font-family="Times New Roman,serif" font-size="14.00">Yes</text>
</g>
<!-- updateentity -->
<g id="node6" class="node"><title>updateentity</title>
<ellipse fill="none" stroke="black" cx="357.692" cy="-18" rx="57.3905" ry="18"/>
<text text-anchor="middle" x="357.692" y="-14.3" font-family="Times New Roman,serif" font-size="14.00">update entity</text>
</g>
<!-- isalreadysaved&#45;&gt;updateentity -->
<g id="edge2" class="edge"><title>isalreadysaved&#45;&gt;updateentity</title>
<path fill="none" stroke="black" d="M305.134,-88.8037C314.511,-76.3494 327.973,-58.4703 338.925,-43.925"/>
<polygon fill="black" stroke="black" points="341.814,-45.9063 345.033,-35.8123 336.222,-41.6958 341.814,-45.9063"/>
<text text-anchor="middle" x="336.192" y="-57.8" font-family="Times New Roman,serif" font-size="14.00">no</text>
</g>
<!-- isentityvalid -->
<g id="node4" class="node"><title>isentityvalid</title>
<polygon fill="none" stroke="black" points="109.692,-210 28.0816,-192 109.692,-174 191.302,-192 109.692,-210"/>
<text text-anchor="middle" x="109.692" y="-188.3" font-family="Times New Roman,serif" font-size="14.00">is entity valid</text>
</g>
<!-- isentityvalid&#45;&gt;displayerrormessage -->
<g id="edge3" class="edge"><title>isentityvalid&#45;&gt;displayerrormessage</title>
<path fill="none" stroke="black" d="M105.836,-174.611C103.068,-162.848 99.2748,-146.727 96.0607,-133.067"/>
<polygon fill="black" stroke="black" points="99.4398,-132.146 93.7424,-123.214 92.6259,-133.75 99.4398,-132.146"/>
<text text-anchor="middle" x="110.692" y="-144.8" font-family="Times New Roman,serif" font-size="14.00">No</text>
</g>
<!-- isentityvalid&#45;&gt;isalreadysaved -->
<g id="edge4" class="edge"><title>isentityvalid&#45;&gt;isalreadysaved</title>
<path fill="none" stroke="black" d="M134.891,-179.359C166.784,-164.626 221.916,-139.157 258.096,-122.444"/>
<polygon fill="black" stroke="black" points="259.701,-125.558 267.312,-118.187 256.766,-119.203 259.701,-125.558"/>
<text text-anchor="middle" x="224.692" y="-144.8" font-family="Times New Roman,serif" font-size="14.00">Yes</text>
</g>
<!-- saveentity -->
<g id="node5" class="node"><title>saveentity</title>
<ellipse fill="none" stroke="black" cx="109.692" cy="-265" rx="48.9926" ry="18"/>
<text text-anchor="middle" x="109.692" y="-261.3" font-family="Times New Roman,serif" font-size="14.00">save entity</text>
</g>
<!-- saveentity&#45;&gt;isentityvalid -->
<g id="edge5" class="edge"><title>saveentity&#45;&gt;isentityvalid</title>
<path fill="none" stroke="black" d="M109.692,-246.813C109.692,-238.789 109.692,-229.047 109.692,-220.069"/>
<polygon fill="black" stroke="black" points="113.192,-220.029 109.692,-210.029 106.192,-220.029 113.192,-220.029"/>
</g>
</g>
</svg>
