<?xml version="1.0" encoding="UTF-8" standalone="no"?>
<!DOCTYPE svg PUBLIC "-//W3C//DTD SVG 1.1//EN"
 "http://www.w3.org/Graphics/SVG/1.1/DTD/svg11.dtd">
<!-- Generated by graphviz version 2.38.0 (20140413.2041)
 -->
<!-- Title: g Pages: 1 -->
<svg width="338pt" height="516pt"
 viewBox="0.00 0.00 338.00 516.00" xmlns="http://www.w3.org/2000/svg" xmlns:xlink="http://www.w3.org/1999/xlink">
<g id="graph0" class="graph" transform="scale(1 1) rotate(0) translate(4 512)">
<title>g</title>
<polygon fill="white" stroke="none" points="-4,4 -4,-512 334,-512 334,4 -4,4"/>
<g id="clust1" class="cluster"><title>cluster_104069929</title>
<polygon fill="#ececec" stroke="black" points="8,-8 8,-500 322,-500 322,-8 8,-8"/>
<text text-anchor="middle" x="33.5" y="-484.8" font-family="Times New Roman,serif" font-size="14.00">model</text>
</g>
<!-- Repeat439207095 -->
<g id="node1" class="node"><title>Repeat439207095</title>
<polygon fill="#dcfbd5" stroke="none" points="162,-87 28,-87 28,-16 162,-16 162,-87"/>
<text text-anchor="start" x="33" y="-70.3" font-family="Times New Roman,serif" font-size="14.00">(E)Repeat</text>
<text text-anchor="start" x="33" y="-47.3" font-family="Times New Roman,serif" font-size="14.00">+ &#160;&#160;Days: Repeat [1]</text>
<text text-anchor="start" x="33" y="-24.3" font-family="Times New Roman,serif" font-size="14.00">+ &#160;&#160;Weeks: Repeat [1]</text>
<polygon fill="black" stroke="black" points="28,-62.5 28,-62.5 162,-62.5 162,-62.5 28,-62.5"/>
<polygon fill="none" stroke="black" points="28,-16 28,-87 162,-87 162,-16 28,-16"/>
</g>
<!-- RepeatingToDoItem439207095 -->
<g id="node2" class="node"><title>RepeatingToDoItem439207095</title>
<polygon fill="#ffffff" stroke="none" points="174,-224 16,-224 16,-153 174,-153 174,-224"/>
<text text-anchor="start" x="21" y="-207.3" font-family="Times New Roman,serif" font-size="14.00">(C)RepeatingToDoItem</text>
<text text-anchor="start" x="21" y="-184.3" font-family="Times New Roman,serif" font-size="14.00">&#45; &#160;&#160;repeatEvery: Repeat [1]</text>
<text text-anchor="start" x="21" y="-161.3" font-family="Times New Roman,serif" font-size="14.00">&#45; &#160;&#160;repeatUnit: int [1]</text>
<polygon fill="black" stroke="black" points="16,-199.5 16,-199.5 174,-199.5 174,-199.5 16,-199.5"/>
<polygon fill="none" stroke="black" points="16,-153 16,-224 174,-224 174,-153 16,-153"/>
</g>
<!-- RepeatingToDoItem439207095&#45;&gt;Repeat439207095 -->
<g id="edge1" class="edge"><title>RepeatingToDoItem439207095&#45;&gt;Repeat439207095</title>
<path fill="none" stroke="black" d="M95,-152.734C95,-135.806 95,-115.254 95,-97.1774"/>
<polygon fill="black" stroke="black" points="98.5001,-97.148 95,-87.148 91.5001,-97.1481 98.5001,-97.148"/>
<text text-anchor="middle" x="128.5" y="-123.8" font-family="Times New Roman,serif" font-size="14.00">repeatEvery</text>
<text text-anchor="middle" x="128.5" y="-108.8" font-family="Times New Roman,serif" font-size="14.00">[1]</text>
</g>
<!-- SingleToDoItem439207095 -->
<g id="node3" class="node"><title>SingleToDoItem439207095</title>
<polygon fill="#ffffff" stroke="none" points="314,-206.5 192,-206.5 192,-170.5 314,-170.5 314,-206.5"/>
<text text-anchor="start" x="197" y="-184.3" font-family="Times New Roman,serif" font-size="14.00">(C)SingleToDoItem</text>
<polygon fill="none" stroke="black" points="192,-176 192,-201 314,-201 314,-176 192,-176"/>
</g>
<!-- ToDoItem439207095 -->
<g id="node4" class="node"><title>ToDoItem439207095</title>
<polygon fill="#ffffff" stroke="none" points="242.5,-355 87.5,-355 87.5,-261 242.5,-261 242.5,-355"/>
<text text-anchor="start" x="93" y="-338.8" font-family="Times New Roman,serif" font-size="14.00">(C)ToDoItem</text>
<text text-anchor="start" x="93" y="-315.8" font-family="Times New Roman,serif" font-size="14.00">&#45; &#160;&#160;lengthInMinutes: int [1]</text>
<text text-anchor="start" x="93" y="-292.8" font-family="Times New Roman,serif" font-size="14.00">&#45; &#160;&#160;name: String [1]</text>
<text text-anchor="start" x="93" y="-269.8" font-family="Times New Roman,serif" font-size="14.00">&#45; &#160;&#160;start: long [1]</text>
<polygon fill="black" stroke="black" points="88,-331 88,-331 243,-331 243,-331 88,-331"/>
<polygon fill="none" stroke="black" points="87.5,-261 87.5,-355 242.5,-355 242.5,-261 87.5,-261"/>
</g>
<!-- ToDoItem439207095&#45;&gt;RepeatingToDoItem439207095 -->
<g id="edge2" class="edge"><title>ToDoItem439207095&#45;&gt;RepeatingToDoItem439207095</title>
<path fill="none" stroke="black" d="M132.36,-252.212C126.681,-242.679 120.919,-233.006 115.675,-224.204"/>
<polygon fill="none" stroke="black" points="129.41,-254.098 137.535,-260.898 135.424,-250.516 129.41,-254.098"/>
</g>
<!-- ToDoItem439207095&#45;&gt;SingleToDoItem439207095 -->
<g id="edge3" class="edge"><title>ToDoItem439207095&#45;&gt;SingleToDoItem439207095</title>
<path fill="none" stroke="black" d="M205.605,-252.783C218.082,-236.124 230.925,-218.975 240.089,-206.739"/>
<polygon fill="none" stroke="black" points="202.721,-250.796 199.527,-260.898 208.323,-254.992 202.721,-250.796"/>
</g>
<!-- ToDoList439207095 -->
<g id="node5" class="node"><title>ToDoList439207095</title>
<polygon fill="#ffffff" stroke="none" points="261,-469 69,-469 69,-421 261,-421 261,-469"/>
<text text-anchor="start" x="74" y="-452.8" font-family="Times New Roman,serif" font-size="14.00">(C)ToDoList</text>
<text text-anchor="start" x="74" y="-429.8" font-family="Times New Roman,serif" font-size="14.00">&#45; &#160;&#160;items: List&lt;ToDoItem&gt; [0..*]</text>
<polygon fill="black" stroke="black" points="69,-445 69,-445 261,-445 261,-445 69,-445"/>
<polygon fill="none" stroke="black" points="69,-421 69,-469 261,-469 261,-421 69,-421"/>
</g>
<!-- ToDoList439207095&#45;&gt;ToDoItem439207095 -->
<g id="edge4" class="edge"><title>ToDoList439207095&#45;&gt;ToDoItem439207095</title>
<path fill="none" stroke="black" d="M165,-420.793C165,-405.45 165,-384.64 165,-365.134"/>
<polygon fill="black" stroke="black" points="168.5,-365.088 165,-355.088 161.5,-365.088 168.5,-365.088"/>
<text text-anchor="middle" x="180.5" y="-391.8" font-family="Times New Roman,serif" font-size="14.00">items</text>
<text text-anchor="middle" x="180.5" y="-376.8" font-family="Times New Roman,serif" font-size="14.00">[0..*]</text>
</g>
</g>
</svg>
