<?xml version="1.0" encoding="UTF-8" standalone="no"?>
<!DOCTYPE svg PUBLIC "-//W3C//DTD SVG 1.1//EN"
 "http://www.w3.org/Graphics/SVG/1.1/DTD/svg11.dtd">
<!-- Generated by graphviz version 2.38.0 (20140413.2041)
 -->
<!-- Title: g Pages: 1 -->
<svg width="583pt" height="323pt"
 viewBox="0.00 0.00 583.29 323.00" xmlns="http://www.w3.org/2000/svg" xmlns:xlink="http://www.w3.org/1999/xlink">
<g id="graph0" class="graph" transform="scale(1 1) rotate(0) translate(4 319)">
<title>g</title>
<polygon fill="white" stroke="none" points="-4,4 -4,-319 579.288,-319 579.288,4 -4,4"/>
<g id="clust1" class="cluster"><title>cluster_1150508209</title>
<polygon fill="#ececec" stroke="black" points="8,-130 8,-307 369.288,-307 369.288,-130 8,-130"/>
<text text-anchor="middle" x="37" y="-291.8" font-family="Times New Roman,serif" font-size="14.00">adapter</text>
</g>
<g id="clust2" class="cluster"><title>cluster_1502206846</title>
<polygon fill="white" stroke="black" points="16,-138 16,-213 163.288,-213 163.288,-138 16,-138"/>
<text text-anchor="middle" x="81" y="-197.8" font-family="Times New Roman,serif" font-size="14.00">WebServiceAdapter</text>
</g>
<g id="clust3" class="cluster"><title>cluster_1326197564</title>
<polygon fill="#ececec" stroke="black" points="222.943,-8 222.943,-122 567.288,-122 567.288,-8 222.943,-8"/>
<text text-anchor="middle" x="251.943" y="-106.8" font-family="Times New Roman,serif" font-size="14.00">domain</text>
</g>
<g id="clust4" class="cluster"><title>cluster_1479269788</title>
<polygon fill="white" stroke="black" points="230.943,-16 230.943,-91 362.633,-91 362.633,-16 230.943,-16"/>
<text text-anchor="middle" x="259.943" y="-75.8" font-family="Times New Roman,serif" font-size="14.00">Service</text>
</g>
<!-- Request686937538 -->
<g id="node1" class="node"><title>Request686937538</title>
<polygon fill="#ffffff" stroke="none" points="351.788,-186 241.788,-186 241.788,-138 351.788,-138 351.788,-186"/>
<text text-anchor="start" x="246.788" y="-169.8" font-family="Times New Roman,serif" font-size="14.00">(C)Request</text>
<text text-anchor="start" x="246.788" y="-146.8" font-family="Times New Roman,serif" font-size="14.00">&#45; &#160;&#160;id: String [0..1]</text>
<polygon fill="black" stroke="black" points="241.788,-162 241.788,-162 351.788,-162 351.788,-162 241.788,-162"/>
<polygon fill="none" stroke="black" points="241.788,-138 241.788,-186 351.788,-186 351.788,-138 241.788,-138"/>
</g>
<!-- Response686937538 -->
<g id="node2" class="node"><title>Response686937538</title>
<polygon fill="#ffffff" stroke="none" points="361.288,-275.5 232.288,-275.5 232.288,-204.5 361.288,-204.5 361.288,-275.5"/>
<text text-anchor="start" x="237.788" y="-258.8" font-family="Times New Roman,serif" font-size="14.00">(C)Response</text>
<text text-anchor="start" x="237.788" y="-235.8" font-family="Times New Roman,serif" font-size="14.00">&#45; &#160;&#160;id: String [0..1]</text>
<text text-anchor="start" x="237.788" y="-212.8" font-family="Times New Roman,serif" font-size="14.00">&#45; &#160;&#160;name: String [0..1]</text>
<polygon fill="black" stroke="black" points="232.788,-251 232.788,-251 361.788,-251 361.788,-251 232.788,-251"/>
<polygon fill="none" stroke="black" points="232.288,-204.5 232.288,-275.5 361.288,-275.5 361.288,-204.5 232.288,-204.5"/>
</g>
<!-- WebServiceAdapter686937538XXXrestMethod1534621073 -->
<g id="node3" class="node"><title>WebServiceAdapter686937538XXXrestMethod1534621073</title>
<g id="a_node3"><a xlink:title="WebServiceAdapter

null">
<ellipse fill="white" stroke="black" stroke-width="4" cx="89.6442" cy="-164" rx="65.7887" ry="18"/>
<text text-anchor="middle" x="89.6442" y="-160.3" font-family="Times New Roman,serif" font-size="14.00" fill="darkgreen">+ restMethod()</text>
</a>
</g>
</g>
<!-- WebServiceAdapter686937538XXXrestMethod1534621073&#45;&gt;Request686937538 -->
<g id="edge2" class="edge"><title>WebServiceAdapter686937538XXXrestMethod1534621073&#45;&gt;Request686937538</title>
<path fill="none" stroke="black" stroke-dasharray="5,2" d="M155.271,-163.37C179.524,-163.133 207.071,-162.865 231.31,-162.629"/>
<polygon fill="black" stroke="black" points="231.511,-166.127 241.476,-162.53 231.442,-159.127 231.511,-166.127"/>
<text text-anchor="middle" x="193.788" y="-167.8" font-family="Times New Roman,serif" font-size="14.00">request</text>
</g>
<!-- WebServiceAdapter686937538XXXrestMethod1534621073&#45;&gt;Response686937538 -->
<g id="edge3" class="edge"><title>WebServiceAdapter686937538XXXrestMethod1534621073&#45;&gt;Response686937538</title>
<path fill="none" stroke="black" stroke-dasharray="5,2" d="M129.713,-178.474C155.946,-188.192 191.315,-201.296 222.671,-212.912"/>
<polygon fill="black" stroke="black" points="221.666,-216.272 232.259,-216.464 224.098,-209.708 221.666,-216.272"/>
<text text-anchor="middle" x="193.788" y="-211.8" font-family="Times New Roman,serif" font-size="14.00">return</text>
</g>
<!-- Service895601675XXXloadById1808118735 -->
<g id="node5" class="node"><title>Service895601675XXXloadById1808118735</title>
<g id="a_node5"><a xlink:title="Service

null">
<ellipse fill="white" stroke="black" cx="296.788" cy="-42" rx="57.6901" ry="18"/>
<text text-anchor="middle" x="296.788" y="-38.3" font-family="Times New Roman,serif" font-size="14.00" fill="darkgreen">+ loadById()</text>
</a>
</g>
</g>
<!-- WebServiceAdapter686937538XXXrestMethod1534621073&#45;&gt;Service895601675XXXloadById1808118735 -->
<g id="edge4" class="edge"><title>WebServiceAdapter686937538XXXrestMethod1534621073&#45;&gt;Service895601675XXXloadById1808118735</title>
<path fill="none" stroke="black" d="M118.311,-147.547C155.016,-125.718 219.86,-87.1551 260.181,-63.1761"/>
<polygon fill="black" stroke="black" points="262.079,-66.119 268.885,-57.9993 258.501,-60.1026 262.079,-66.119"/>
</g>
<!-- Entity895601675 -->
<g id="node4" class="node"><title>Entity895601675</title>
<polygon fill="#ffffff" stroke="none" points="559.288,-87.5 430.288,-87.5 430.288,-16.5 559.288,-16.5 559.288,-87.5"/>
<text text-anchor="start" x="435.788" y="-70.8" font-family="Times New Roman,serif" font-size="14.00">(C)Entity</text>
<text text-anchor="start" x="435.788" y="-47.8" font-family="Times New Roman,serif" font-size="14.00">&#45; &#160;&#160;id: String [0..1]</text>
<text text-anchor="start" x="435.788" y="-24.8" font-family="Times New Roman,serif" font-size="14.00">&#45; &#160;&#160;name: String [0..1]</text>
<polygon fill="black" stroke="black" points="430.788,-63 430.788,-63 559.788,-63 559.788,-63 430.788,-63"/>
<polygon fill="none" stroke="black" points="430.288,-16.5 430.288,-87.5 559.288,-87.5 559.288,-16.5 430.288,-16.5"/>
</g>
<!-- Service895601675XXXloadById1808118735&#45;&gt;Entity895601675 -->
<g id="edge1" class="edge"><title>Service895601675XXXloadById1808118735&#45;&gt;Entity895601675</title>
<path fill="none" stroke="black" stroke-dasharray="5,2" d="M353.954,-44.8656C374.462,-45.9119 397.978,-47.1117 419.801,-48.2251"/>
<polygon fill="black" stroke="black" points="419.858,-51.7325 430.024,-48.7467 420.215,-44.7416 419.858,-51.7325"/>
<text text-anchor="middle" x="395.788" y="-51.8" font-family="Times New Roman,serif" font-size="14.00">return</text>
</g>
</g>
</svg>
