<?xml version="1.0" encoding="UTF-8" standalone="no"?>
<!DOCTYPE svg PUBLIC "-//W3C//DTD SVG 1.1//EN"
 "http://www.w3.org/Graphics/SVG/1.1/DTD/svg11.dtd">
<!-- Generated by graphviz version 2.38.0 (20140413.2041)
 -->
<!-- Title: g Pages: 1 -->
<svg width="338pt" height="585pt"
 viewBox="0.00 0.00 338.00 585.00" xmlns="http://www.w3.org/2000/svg" xmlns:xlink="http://www.w3.org/1999/xlink">
<g id="graph0" class="graph" transform="scale(1 1) rotate(0) translate(4 581)">
<title>g</title>
<polygon fill="white" stroke="none" points="-4,4 -4,-581 334,-581 334,4 -4,4"/>
<g id="clust1" class="cluster"><title>cluster_104069929</title>
<polygon fill="#ececec" stroke="black" points="8,-8 8,-569 322,-569 322,-8 8,-8"/>
<text text-anchor="middle" x="33.5" y="-553.8" font-family="Times New Roman,serif" font-size="14.00">model</text>
</g>
<!-- Repeat439207095 -->
<g id="node1" class="node"><title>Repeat439207095</title>
<polygon fill="#dcfbd5" stroke="none" points="162,-133 28,-133 28,-16 162,-16 162,-133"/>
<text text-anchor="start" x="33" y="-116.3" font-family="Times New Roman,serif" font-size="14.00">(E)Repeat</text>
<text text-anchor="start" x="33" y="-93.3" font-family="Times New Roman,serif" font-size="14.00">+ &#160;&#160;Days: Repeat [1]</text>
<text text-anchor="start" x="33" y="-70.3" font-family="Times New Roman,serif" font-size="14.00">+ &#160;&#160;Weeks: Repeat [1]</text>
<text text-anchor="start" x="33" y="-47.3" font-family="Times New Roman,serif" font-size="14.00">+ valueOf(): Repeat</text>
<text text-anchor="start" x="33" y="-24.3" font-family="Times New Roman,serif" font-size="14.00">+ values(): Repeat[]</text>
<polygon fill="black" stroke="black" points="28,-108.5 28,-108.5 162,-108.5 162,-108.5 28,-108.5"/>
<polygon fill="black" stroke="black" points="28,-62.5 28,-62.5 162,-62.5 162,-62.5 28,-62.5"/>
<polygon fill="none" stroke="black" points="28,-16 28,-133 162,-133 162,-16 28,-16"/>
</g>
<!-- RepeatingToDoItem439207095 -->
<g id="node2" class="node"><title>RepeatingToDoItem439207095</title>
<polygon fill="#ffffff" stroke="none" points="174,-270 16,-270 16,-199 174,-199 174,-270"/>
<text text-anchor="start" x="21" y="-253.3" font-family="Times New Roman,serif" font-size="14.00">(C)RepeatingToDoItem</text>
<text text-anchor="start" x="21" y="-230.3" font-family="Times New Roman,serif" font-size="14.00">&#45; &#160;&#160;repeatEvery: Repeat [1]</text>
<text text-anchor="start" x="21" y="-207.3" font-family="Times New Roman,serif" font-size="14.00">&#45; &#160;&#160;repeatUnit: int [1]</text>
<polygon fill="black" stroke="black" points="16,-245.5 16,-245.5 174,-245.5 174,-245.5 16,-245.5"/>
<polygon fill="none" stroke="black" points="16,-199 16,-270 174,-270 174,-199 16,-199"/>
</g>
<!-- RepeatingToDoItem439207095&#45;&gt;Repeat439207095 -->
<g id="edge1" class="edge"><title>RepeatingToDoItem439207095&#45;&gt;Repeat439207095</title>
<path fill="none" stroke="black" d="M95,-198.826C95,-182.502 95,-162.444 95,-143.285"/>
<polygon fill="black" stroke="black" points="98.5001,-143.069 95,-133.069 91.5001,-143.069 98.5001,-143.069"/>
<text text-anchor="middle" x="128.5" y="-169.8" font-family="Times New Roman,serif" font-size="14.00">repeatEvery</text>
<text text-anchor="middle" x="128.5" y="-154.8" font-family="Times New Roman,serif" font-size="14.00">[1]</text>
</g>
<!-- SingleToDoItem439207095 -->
<g id="node3" class="node"><title>SingleToDoItem439207095</title>
<polygon fill="#ffffff" stroke="none" points="314,-252.5 192,-252.5 192,-216.5 314,-216.5 314,-252.5"/>
<text text-anchor="start" x="197" y="-230.3" font-family="Times New Roman,serif" font-size="14.00">(C)SingleToDoItem</text>
<polygon fill="none" stroke="black" points="192,-222 192,-247 314,-247 314,-222 192,-222"/>
</g>
<!-- ToDoItem439207095 -->
<g id="node4" class="node"><title>ToDoItem439207095</title>
<polygon fill="#ffffff" stroke="none" points="242.5,-424 87.5,-424 87.5,-307 242.5,-307 242.5,-424"/>
<text text-anchor="start" x="93" y="-407.3" font-family="Times New Roman,serif" font-size="14.00">(C)ToDoItem</text>
<text text-anchor="start" x="93" y="-384.3" font-family="Times New Roman,serif" font-size="14.00">&#45; &#160;&#160;lengthInMinutes: int [1]</text>
<text text-anchor="start" x="93" y="-361.3" font-family="Times New Roman,serif" font-size="14.00">&#45; &#160;&#160;name: String [1]</text>
<text text-anchor="start" x="93" y="-338.3" font-family="Times New Roman,serif" font-size="14.00">&#45; &#160;&#160;start: long [1]</text>
<text text-anchor="start" x="93" y="-315.3" font-family="Times New Roman,serif" font-size="14.00">+ toSomethingNice()</text>
<polygon fill="black" stroke="black" points="88,-399.5 88,-399.5 243,-399.5 243,-399.5 88,-399.5"/>
<polygon fill="black" stroke="black" points="88,-330.5 88,-330.5 243,-330.5 243,-330.5 88,-330.5"/>
<polygon fill="none" stroke="black" points="87.5,-307 87.5,-424 242.5,-424 242.5,-307 87.5,-307"/>
</g>
<!-- ToDoItem439207095&#45;&gt;RepeatingToDoItem439207095 -->
<g id="edge2" class="edge"><title>ToDoItem439207095&#45;&gt;RepeatingToDoItem439207095</title>
<path fill="none" stroke="black" d="M128.907,-297.986C123.7,-288.39 118.525,-278.853 113.844,-270.226"/>
<polygon fill="none" stroke="black" points="125.84,-299.671 133.685,-306.792 131.992,-296.333 125.84,-299.671"/>
</g>
<!-- ToDoItem439207095&#45;&gt;SingleToDoItem439207095 -->
<g id="edge3" class="edge"><title>ToDoItem439207095&#45;&gt;SingleToDoItem439207095</title>
<path fill="none" stroke="black" d="M210.063,-298.441C221.68,-281.412 233.198,-264.528 241.375,-252.541"/>
<polygon fill="none" stroke="black" points="207.111,-296.558 204.367,-306.792 212.894,-300.503 207.111,-296.558"/>
</g>
<!-- ToDoList439207095 -->
<g id="node5" class="node"><title>ToDoList439207095</title>
<polygon fill="#ffffff" stroke="none" points="261,-538 69,-538 69,-490 261,-490 261,-538"/>
<text text-anchor="start" x="74" y="-521.8" font-family="Times New Roman,serif" font-size="14.00">(C)ToDoList</text>
<text text-anchor="start" x="74" y="-498.8" font-family="Times New Roman,serif" font-size="14.00">&#45; &#160;&#160;items: List&lt;ToDoItem&gt; [0..n]</text>
<polygon fill="black" stroke="black" points="69,-514 69,-514 261,-514 261,-514 69,-514"/>
<polygon fill="none" stroke="black" points="69,-490 69,-538 261,-538 261,-490 69,-490"/>
</g>
<!-- ToDoList439207095&#45;&gt;ToDoItem439207095 -->
<g id="edge4" class="edge"><title>ToDoList439207095&#45;&gt;ToDoItem439207095</title>
<path fill="none" stroke="black" d="M165,-477.702C165,-461.62 165,-442.166 165,-424.055"/>
<polygon fill="black" stroke="black" points="165,-477.787 169,-483.787 165,-489.787 161,-483.787 165,-477.787"/>
<text text-anchor="middle" x="180.5" y="-460.8" font-family="Times New Roman,serif" font-size="14.00">items</text>
<text text-anchor="middle" x="180.5" y="-445.8" font-family="Times New Roman,serif" font-size="14.00">[0..n]</text>
</g>
</g>
</svg>
